<svg width="800" height="800" viewBox="0 0 800 800" fill="none" xmlns="http://www.w3.org/2000/svg">
<g clip-path="url(#clip0_34_4)">
<path d="M799.172 251.971L665.674 750.191C662.781 760.992 652.972 768.136 642.284 768.138C640.217 768.138 638.119 767.87 636.029 767.311L309.467 679.809C296.574 676.353 288.896 663.053 292.352 650.161L295.874 637.02C298.094 628.736 306.609 623.825 314.893 626.041C323.177 628.261 328.093 636.776 325.872 645.06L324.125 651.583L637.446 735.537L767.397 250.551L634.483 214.937C626.199 212.717 621.282 204.201 623.503 195.918C625.723 187.634 634.244 182.721 642.521 184.937L782.057 222.324C794.951 225.782 802.628 239.08 799.172 251.971ZM286.647 96.6759C278.07 96.6759 271.118 103.628 271.118 112.205V126.984C271.118 135.561 278.07 142.513 286.647 142.513C295.225 142.513 302.177 135.561 302.177 126.984V112.205C302.177 103.628 295.225 96.6759 286.647 96.6759ZM484.663 304.996C488.463 310.369 488.463 317.554 484.663 322.929L412.684 424.724C409.773 428.839 405.045 431.288 400.003 431.288C394.963 431.288 390.234 428.841 387.325 424.724L315.342 322.929C311.542 317.556 311.542 310.371 315.342 304.996L387.325 203.201C390.236 199.085 394.963 196.637 400.003 196.637C405.045 196.637 409.773 199.084 412.684 203.201L484.663 304.996ZM452.965 313.962L400.003 239.063L347.042 313.962L400.003 388.859L452.965 313.962ZM591.861 656.994L588.037 671.268C585.818 679.552 590.734 688.067 599.02 690.286C600.366 690.647 601.717 690.82 603.047 690.82C609.904 690.82 616.18 686.242 618.038 679.304L621.862 665.029C624.081 656.745 619.165 648.23 610.879 646.011C602.595 643.789 594.08 648.71 591.861 656.994ZM193.899 372.55C198.345 371.359 202.623 370.671 206.76 370.488V56.0637C206.76 42.7155 217.619 31.8572 230.965 31.8572H569.043C582.392 31.8572 593.252 42.7155 593.252 56.0637V370.486C597.386 370.669 601.663 371.357 606.106 372.548C634.595 380.181 651.565 409.571 643.932 438.06C636.547 465.623 612.958 486.559 593.252 500.874V571.858C593.252 585.206 582.392 596.066 569.043 596.066H230.965C217.619 596.066 206.76 585.206 206.76 571.858V500.877C187.052 486.565 163.463 465.63 156.073 438.062C152.376 424.265 154.275 409.851 161.422 397.474C168.569 385.099 180.104 376.245 193.899 372.55ZM593.25 460.784C604.519 450.135 611.236 440.079 613.93 430.023C617.13 418.076 610.013 405.751 598.066 402.548C596.259 402.064 594.667 401.77 593.25 401.62V460.784ZM237.819 565.009H562.192V493.057C562.19 492.919 562.19 492.78 562.192 492.642V389.274C562.187 389.05 562.187 388.824 562.192 388.6V62.9155H237.819V388.605C237.824 388.829 237.824 389.055 237.819 389.281V492.633C237.82 492.778 237.82 492.923 237.819 493.068V565.009ZM186.074 430.023C188.771 440.082 195.49 450.142 206.76 460.791V401.622C205.342 401.77 203.748 402.064 201.939 402.548C196.154 404.098 191.317 407.813 188.319 413.006C185.321 418.198 184.524 424.241 186.074 430.023ZM299.499 698.845L162.561 735.537L32.606 250.553L165.52 214.937C173.804 212.717 178.722 204.201 176.501 195.918C174.28 187.634 165.76 182.718 157.483 184.937L17.9482 222.326C11.7124 223.996 6.49635 228.002 3.26111 233.607C0.0241392 239.213 -0.838592 245.735 0.833381 251.973L134.332 750.188C136.003 756.427 140.009 761.646 145.617 764.885C149.354 767.042 153.497 768.146 157.695 768.146C159.793 768.146 161.904 767.87 163.983 767.314L307.539 728.849C315.823 726.628 320.741 718.113 318.52 709.831C316.298 701.54 307.783 696.628 299.499 698.845ZM88.5127 270.521C80.2288 272.742 75.3129 281.257 77.5319 289.541L81.3572 303.818C83.2173 310.756 89.4911 315.332 96.348 315.332C97.6784 315.332 99.0311 315.159 100.377 314.798C108.661 312.578 113.577 304.063 111.358 295.779L107.532 281.502C105.312 273.216 96.8001 268.302 88.5127 270.521ZM513.359 485.41C504.782 485.41 497.83 492.362 497.83 500.939V515.718C497.83 524.295 504.782 531.247 513.359 531.247C521.937 531.247 528.888 524.295 528.888 515.718V500.939C528.888 492.364 521.937 485.41 513.359 485.41Z" fill="#00AB78"/>
</g>
<defs>
<clipPath id="clip0_34_4">
<rect width="800" height="800" fill="white"/>
</clipPath>
</defs>
</svg>
